<svg width="123" height="45" viewBox="0 0 123 45" fill="none" xmlns="http://www.w3.org/2000/svg">
<path d="M16.3418 14V5.66797H15.1172V3.6875H19.6289V5.66797H18.4043V14H16.3418ZM20.168 14V3.6875H22.3242V6.08398C22.4375 5.75586 22.6113 5.51367 22.8457 5.35742C23.0801 5.19727 23.3535 5.11719 23.666 5.11719C24.2754 5.11719 24.7188 5.30859 24.9961 5.69141C25.2734 6.07422 25.4121 6.58789 25.4121 7.23242V14H23.291V7.36719C23.291 7.17578 23.25 7.01953 23.168 6.89844C23.0898 6.77734 22.9648 6.7168 22.793 6.7168C22.6484 6.7168 22.5332 6.7793 22.4473 6.9043C22.3652 7.0293 22.3242 7.17773 22.3242 7.34961V14H20.168ZM28.6992 14.0938C28.0742 14.0938 27.5762 13.9766 27.2051 13.7422C26.834 13.5078 26.5684 13.1699 26.4082 12.7285C26.248 12.2871 26.168 11.7559 26.168 11.1348V7.60156C26.168 6.78516 26.4023 6.16797 26.8711 5.75C27.3398 5.32812 27.9844 5.11719 28.8047 5.11719C30.4922 5.11719 31.3359 5.94531 31.3359 7.60156V8.24023C31.3359 9.01367 31.3281 9.5332 31.3125 9.79883H28.2656V11.498C28.2656 11.6543 28.2754 11.8086 28.2949 11.9609C28.3145 12.1094 28.3574 12.2324 28.4238 12.3301C28.4941 12.4277 28.6055 12.4766 28.7578 12.4766C28.9766 12.4766 29.1133 12.3828 29.168 12.1953C29.2227 12.0039 29.25 11.7559 29.25 11.4512V10.6074H31.3359V11.1055C31.3359 11.7617 31.2539 12.3125 31.0898 12.7578C30.9297 13.1992 30.6562 13.5332 30.2695 13.7598C29.8867 13.9824 29.3633 14.0938 28.6992 14.0938ZM28.2539 8.75586H29.25V7.57227C29.25 7.25586 29.2109 7.0293 29.1328 6.89258C29.0547 6.75195 28.9375 6.68164 28.7812 6.68164C28.6133 6.68164 28.4824 6.74805 28.3887 6.88086C28.2988 7.01367 28.2539 7.24414 28.2539 7.57227V8.75586Z" fill="black"/>
<path d="M15.9141 37V16.375H21.5859C23.0703 16.375 24.1875 16.7891 24.9375 17.6172C25.6875 18.4375 26.0625 19.6406 26.0625 21.2266V30.8828C26.0625 32.8359 25.7188 34.3438 25.0312 35.4062C24.3516 36.4688 23.1562 37 21.4453 37H15.9141ZM20.0625 33.3555H20.7773C21.5352 33.3555 21.9141 32.9883 21.9141 32.2539V21.6133C21.9141 20.9258 21.8203 20.4844 21.6328 20.2891C21.4531 20.0859 21.082 19.9844 20.5195 19.9844H20.0625V33.3555ZM27.75 37V16.375H36V20.3594H31.9453V24.3789H35.8359V28.2578H31.9453V32.9805H36.2695V37H27.75ZM39.5391 37L36.9961 16.3633H40.9219L42.4336 30.4023L43.7812 16.3633H47.707L45.1641 37H39.5391ZM48.9141 37V16.375H57.1641V20.3594H53.1094V24.3789H57V28.2578H53.1094V32.9805H57.4336V37H48.9141ZM58.8047 37V16.375H62.9297V33.4844H67.1719V37H58.8047ZM73.2656 37.1875C71.6172 37.1875 70.3555 36.6914 69.4805 35.6992C68.6133 34.6992 68.1797 33.2578 68.1797 31.375V21.5781C68.1797 19.8125 68.6094 18.4727 69.4688 17.5586C70.3359 16.6445 71.6016 16.1875 73.2656 16.1875C74.9297 16.1875 76.1914 16.6445 77.0508 17.5586C77.918 18.4727 78.3516 19.8125 78.3516 21.5781V31.375C78.3516 33.2578 77.9141 34.6992 77.0391 35.6992C76.1719 36.6914 74.9141 37.1875 73.2656 37.1875ZM73.3008 33.3906C73.9258 33.3906 74.2383 32.7852 74.2383 31.5742V21.5078C74.2383 20.4922 73.9336 19.9844 73.3242 19.9844C72.6367 19.9844 72.293 20.5039 72.293 21.543V31.5977C72.293 32.2383 72.3711 32.6992 72.5273 32.9805C72.6836 33.2539 72.9414 33.3906 73.3008 33.3906ZM80.0156 37V16.375H85.4648C86.6055 16.375 87.5078 16.6289 88.1719 17.1367C88.8438 17.6445 89.3242 18.3672 89.6133 19.3047C89.9023 20.2422 90.0469 21.3594 90.0469 22.6562C90.0469 23.9062 89.9258 24.9961 89.6836 25.9258C89.4414 26.8477 89.0078 27.5625 88.3828 28.0703C87.7656 28.5781 86.8867 28.832 85.7461 28.832H84.0703V37H80.0156ZM84.0703 25.1289H84.3047C85.0703 25.1289 85.5391 24.9141 85.7109 24.4844C85.8828 24.0547 85.9688 23.4219 85.9688 22.5859C85.9688 21.8047 85.8828 21.2031 85.7109 20.7812C85.5469 20.3516 85.1523 20.1367 84.5273 20.1367H84.0703V25.1289ZM91.3594 37V16.375H99.6094V20.3594H95.5547V24.3789H99.4453V28.2578H95.5547V32.9805H99.8789V37H91.3594ZM101.25 37V16.375H107.578C108.633 16.375 109.43 16.6172 109.969 17.1016C110.508 17.5781 110.867 18.25 111.047 19.1172C111.234 19.9766 111.328 20.9883 111.328 22.1523C111.328 23.2773 111.184 24.1758 110.895 24.8477C110.613 25.5195 110.078 25.9844 109.289 26.2422C109.938 26.375 110.391 26.6992 110.648 27.2148C110.914 27.7227 111.047 28.3828 111.047 29.1953V37H106.98V28.9258C106.98 28.3242 106.855 27.9531 106.605 27.8125C106.363 27.6641 105.969 27.5898 105.422 27.5898V37H101.25ZM105.445 24.0156H106.441C107.012 24.0156 107.297 23.3945 107.297 22.1523C107.297 21.3477 107.234 20.8203 107.109 20.5703C106.984 20.3203 106.75 20.1953 106.406 20.1953H105.445V24.0156Z" fill="black"/>
<path d="M1 19.7279L13.7279 7" stroke="black" stroke-linecap="round"/>
<path d="M1 19.7279L13.7279 32.4558" stroke="black" stroke-linecap="round"/>
<path d="M122 26.5L114 34" stroke="black" stroke-linecap="round"/>
<path d="M122 26.5L114 19" stroke="black" stroke-linecap="round"/>
</svg>
